HIERARCHY
ROOT Hips
{
	OFFSET -3.958830 18.904000 13.208200
	CHANNELS 6 Xposition Yposition Zposition Zrotation Yrotation Xrotation 
	JOINT LHipJoint
	{
		OFFSET 0.000000 0.000000 0.000000
		CHANNELS 3 Zrotation Yrotation Xrotation
		JOINT LeftUpLeg
		{
			OFFSET 1.800000 -1.400000 0.085000
			CHANNELS 3 Zrotation Yrotation Xrotation
			JOINT LeftLeg
			{
				OFFSET 2.215000 -6.000000 0.000000
				CHANNELS 3 Zrotation Yrotation Xrotation
				JOINT LeftFoot
				{
					OFFSET 2.500000 -6.900000 0.000000
					CHANNELS 3 Zrotation Yrotation Xrotation
					JOINT LeftToeBase
					{
						OFFSET 0.200000 -0.500000 1.950000
						CHANNELS 3 Zrotation Yrotation Xrotation
						End Site
						{
							OFFSET 0.000000 0.000000 0.000000
						}
					}
				}
			}
		}
	}
	JOINT RHipJoint
	{
		OFFSET 0.000000 0.000000 0.000000
		CHANNELS 3 Zrotation Yrotation Xrotation
		JOINT RightUpLeg
		{
			OFFSET -1.800000 -1.400000 0.085000
			CHANNELS 3 Zrotation Yrotation Xrotation
			JOINT RightLeg
			{
				OFFSET -2.215000 -6.000000 0.000000
				CHANNELS 3 Zrotation Yrotation Xrotation
				JOINT RightFoot
				{
					OFFSET -2.500000 -6.900000 0.000000
					CHANNELS 3 Zrotation Yrotation Xrotation
					JOINT RightToeBase
					{
						OFFSET -0.200000 -0.500000 1.950000
						CHANNELS 3 Zrotation Yrotation Xrotation
						End Site
						{
							OFFSET 0.000000 0.000000 0.000000
						}
					}
				}
			}
		}
	}
	JOINT LowerBack
	{
		OFFSET 0.000000 0.000000 0.000000
		CHANNELS 3 Zrotation Yrotation Xrotation
		JOINT Spine
		{
			OFFSET -0.087000 1.940000 -0.288900
			CHANNELS 3 Zrotation Yrotation Xrotation
			JOINT Spine1
			{
				OFFSET 0.000000 1.950000 0.060000
				CHANNELS 3 Zrotation Yrotation Xrotation
				JOINT Neck
				{
					OFFSET 0.000000 0.000000 0.000000
					CHANNELS 3 Zrotation Yrotation Xrotation
					JOINT Neck1
					{
						OFFSET 0.000000 1.600000 0.340000
						CHANNELS 3 Zrotation Yrotation Xrotation
						JOINT Head
						{
							OFFSET 0.000000 1.667000 -0.240000
							CHANNELS 3 Zrotation Yrotation Xrotation
							End Site
							{
								OFFSET 0.000000 0.000000 0.000000
							}
						}
					}
				}
				JOINT LeftShoulder
				{
					OFFSET 0.000000 0.000000 0.000000
					CHANNELS 3 Zrotation Yrotation Xrotation
					JOINT LeftArm
					{
						OFFSET 2.700000 1.550000 -0.730000
						CHANNELS 3 Zrotation Yrotation Xrotation
						JOINT LeftForeArm
						{
							OFFSET 5.450000 0.000000 0.000000
							CHANNELS 3 Zrotation Yrotation Xrotation
							JOINT LeftHand
							{
								OFFSET 3.450000 0.000000 0.000000
								CHANNELS 3 Zrotation Yrotation Xrotation
								JOINT LeftHandIndex1
								{
									OFFSET 0.750000 0.000000 0.000000
									CHANNELS 3 Zrotation Yrotation Xrotation
									End Site
									{
										OFFSET 0.000000 0.000000 0.000000
									}
								}
							}
						}
					}
				}
				JOINT RightShoulder
				{
					OFFSET 0.000000 0.000000 0.000000
					CHANNELS 3 Zrotation Yrotation Xrotation
					JOINT RightArm
					{
						OFFSET -2.700000 1.550000 -0.730000
						CHANNELS 3 Zrotation Yrotation Xrotation
						JOINT RightForeArm
						{
							OFFSET -5.450000 0.000000 0.000000
							CHANNELS 3 Zrotation Yrotation Xrotation
							JOINT RightHand
							{
								OFFSET -3.450000 0.000000 0.000000
								CHANNELS 3 Zrotation Yrotation Xrotation
								JOINT RightHandIndex1
								{
									OFFSET -0.750000 0.000000 0.000000
									CHANNELS 3 Zrotation Yrotation Xrotation
									End Site
									{
										OFFSET 0.000000 0.000000 0.000000
									}
								}
							}
						}
					}
				}
			}
		}
	}
}
MOTION
Frames: 8
Frame Time: 0.016667
0.889860 16.820090 -4.258150 1.871849 -0.437781 9.087978 -15.284734 11.791622 3.267370 3.273437 -8.074775 -27.347261 -5.124412 10.541572 46.090527 -0.870115 9.652080 1.661544 0.390630 -0.166490 -0.133420 18.658872 -8.783640 4.027858 -4.512193 7.322759 -49.753558 4.586210 -8.746521 37.674080 -0.217412 -5.827921 2.809338 0.472090 1.424320 0.196180 -4.040089 -2.150558 -7.350666 13.681003 -6.309220 6.099471 -7.501978 -4.725361 4.902328 0.633663 -5.898037 -2.945483 -9.695843 7.067792 16.171222 -6.272610 2.174220 -3.982890 -21.711037 7.675208 -2.796657 -52.360521 -7.921719 -5.833161 67.870466 -86.121730 -63.453108 -4.223691 0.256502 0.591180 1.016110 -0.915320 0.567250 20.163079 -6.801656 0.418707 49.038748 -5.028474 -10.322513 26.847583 50.054548 8.675581 0.712635 -1.791406 -0.980970 1.018620 0.440690 -0.428040 
0.936610 16.715290 -4.303270 0.958711 -0.588886 7.798368 -15.221095 11.878119 2.824226 4.180869 -6.893109 -24.231697 -4.884343 9.994076 43.168404 -1.008771 9.027072 1.828460 0.466630 -0.076580 -0.071850 18.741752 -8.579978 4.545185 -5.027448 8.318613 -54.361379 3.191393 -10.328222 46.464850 -0.621399 -7.315500 2.287504 0.480090 1.304830 0.199700 -4.241250 -2.289891 -7.529138 16.077432 -7.920412 8.295905 -8.852436 -5.727049 5.067306 0.780675 -6.781142 -3.269916 -11.385659 7.680180 16.767157 -6.033990 2.377490 -7.463150 -22.259886 6.828082 -2.706302 -48.393497 -8.550766 -0.298085 93.851507 -77.249975 -80.846580 -4.407502 -1.086838 0.710790 0.900730 -0.787740 0.564890 20.231179 -5.894465 1.072985 46.494309 -6.212295 -10.761391 30.596301 54.868717 11.643519 0.697229 -1.805112 -0.939350 1.022260 0.407800 -0.443500 
0.981800 16.611960 -4.352430 0.053281 -1.231406 5.657599 -15.180235 11.963936 2.522260 5.399558 -6.099401 -21.067708 -5.607904 10.257183 41.612444 -0.960228 8.780332 1.866856 0.553860 0.008320 0.018510 18.796385 -8.340368 4.983994 -5.388881 9.319204 -58.122476 1.266507 -11.543072 55.255063 -1.074154 -8.761424 1.797188 0.445920 1.127940 0.202440 -4.363859 -2.576349 -7.798818 17.715740 -9.863735 12.104710 -10.043520 -6.943700 4.831801 1.013583 -7.815427 -4.017076 -13.477313 8.450095 17.724485 -4.928880 2.528840 -11.715460 -22.872749 5.176145 -2.030983 -42.703509 -7.799027 -0.185416 102.399403 -69.906721 -84.870285 -4.408965 0.260628 0.837550 0.718920 -0.625790 0.554880 20.316388 -3.959163 1.978133 43.911772 -6.824639 -11.133359 34.455851 59.374505 14.921758 0.772787 -1.809997 -0.851710 0.977860 0.345180 -0.448650 
1.011290 16.528460 -4.416530 -0.497395 -2.817332 3.098117 -15.187332 11.976283 2.421157 6.609178 -5.825079 -18.663329 -7.133582 11.349870 42.025204 -0.875580 9.075289 1.714887 0.604420 0.056340 0.078000 18.803101 -8.061437 5.344485 -5.189555 10.726663 -60.935081 -1.336245 -11.774010 63.248262 -1.483520 -9.966633 1.427590 0.420180 0.982030 0.190440 -4.350813 -2.890199 -8.141055 17.686030 -11.281852 17.583554 -10.101279 -7.700676 3.937683 1.127470 -8.637297 -4.553098 -15.255813 9.143888 18.579065 -4.453200 2.786910 -17.022280 -24.054850 3.484210 -1.855541 -36.509486 -6.207932 -2.185955 105.297467 -65.492127 -84.127963 -4.278094 0.878614 1.001680 0.562070 -0.486580 0.532610 21.371723 -1.947635 2.810289 40.186423 -7.486739 -11.293336 38.739289 64.869355 19.128120 0.818455 -1.777381 -0.826120 0.975040 0.322210 -0.476950 
1.036900 16.451510 -4.488910 -1.097629 -4.085615 0.725318 -15.221459 11.920385 2.445341 7.723407 -6.148591 -17.777984 -7.886345 12.511633 44.555273 -0.726561 9.702129 1.499590 0.609670 0.053900 0.124590 18.790375 -7.809181 5.574514 -4.623841 12.004238 -62.839689 -4.121635 -11.453694 70.242085 -1.824148 -10.950663 1.173931 0.393680 0.909280 0.141680 -4.278532 -3.149473 -8.419713 17.280075 -12.554483 23.090265 -9.672563 -8.373538 2.998071 1.097883 -9.423175 -5.215478 -16.912670 9.526440 18.687210 -4.265240 2.718700 -21.511380 -24.480888 1.972000 -1.546299 -31.338906 -4.017469 -4.010226 107.150011 -62.607732 -83.493690 -4.187503 1.091720 1.126510 0.449510 -0.396150 0.524350 22.061445 0.008832 3.702002 36.373521 -8.299250 -11.232287 43.375066 70.145465 23.877921 0.876885 -1.706234 -0.853690 1.044920 0.307010 -0.498290 
1.055200 16.393660 -4.554150 -1.985715 -5.264124 -1.648499 -15.244565 11.831694 2.523820 9.531300 -6.541198 -17.192128 -8.990144 14.094858 47.396921 -0.524628 10.456480 1.227378 0.612800 0.041800 0.170880 18.779260 -7.650960 5.678869 -3.234380 13.363470 -63.240021 -7.056905 -10.437789 75.850944 -2.090338 -11.677067 0.988191 0.355910 0.822300 0.114210 -4.232910 -3.244240 -8.630096 17.097503 -13.515288 28.087985 -9.476363 -8.775291 2.468240 1.221593 -9.726825 -5.883707 -17.726569 9.774291 19.417337 -4.367430 2.993460 -24.466830 -24.550579 0.340843 -1.284271 -26.155416 -1.930428 -5.587099 106.722880 -61.280052 -81.160589 -4.077167 1.129582 1.210010 0.356130 -0.330950 0.499950 22.042019 1.772456 4.721155 34.125093 -9.275553 -11.434677 47.023289 75.263661 28.240817 0.952524 -1.665593 -0.852880 1.040060 0.288250 -0.522950 
1.073600 16.356180 -4.596820 -2.956962 -6.432424 -3.329174 -15.244692 11.679512 2.589029 11.274453 -6.760527 -16.907487 -10.100514 15.624999 49.575022 -0.376217 11.110940 0.997102 0.620090 0.039950 0.195480 18.798627 -7.547144 5.749233 -1.638799 14.788126 -63.074671 -9.672412 -9.154715 80.214929 -2.299974 -12.234059 0.859179 0.343410 0.778070 0.090940 -4.278264 -3.137459 -8.757301 17.708266 -14.293258 31.444379 -9.658881 -8.949717 2.316493 1.193602 -9.996735 -6.322278 -18.392219 10.126584 19.861118 -4.115610 3.012590 -26.500440 -24.179254 -0.644507 -1.162919 -21.843794 -0.143148 -6.381435 104.748938 -61.921882 -78.730501 -3.982840 0.981175 1.270480 0.299170 -0.296840 0.487450 21.770968 2.866773 5.432279 32.438340 -9.668387 -11.073394 50.998421 79.735410 33.034937 1.028709 -1.583260 -0.863770 1.054190 0.282510 -0.539360 
1.073770 16.328040 -4.617860 -3.248819 -7.691769 -4.613155 -15.262685 11.603338 2.679454 12.523112 -6.752606 -16.543247 -11.368308 17.133296 50.920054 -0.217398 11.655225 0.806070 0.581130 -0.010160 0.176270 18.786010 -7.466157 5.766400 -0.445682 15.893019 -61.892406 -11.217220 -8.208427 83.125894 -2.436862 -12.621785 0.770875 0.296840 0.761640 0.108010 -4.253820 -3.138466 -8.872933 17.166195 -14.024520 33.556043 -9.326456 -8.622604 2.780914 1.140761 -9.745164 -6.963962 -18.145416 10.268308 20.946827 -4.121820 3.306090 -27.025580 -23.413066 -1.976931 -0.829889 -17.567545 1.900064 -6.926405 101.976642 -64.160765 -76.895993 -3.923222 0.702290 1.287510 0.285620 -0.283600 0.460280 21.158045 4.236576 6.270955 31.514223 -10.046097 -10.827113 54.884692 83.166240 37.430578 1.120344 -1.450862 -0.850680 1.028970 0.314660 -0.545040 
